<?xml version="1.0" encoding="utf-8"?>
<!-- Generator: Adobe Illustrator 21.1.0, SVG Export Plug-In . SVG Version: 6.00 Build 0)  -->
<svg version="1.1" id="Capa_1" xmlns="http://www.w3.org/2000/svg" xmlns:xlink="http://www.w3.org/1999/xlink" x="0px" y="0px"
	 viewBox="0 0 1.4 1.4" style="enable-background:new 0 0 1.4 1.4;" xml:space="preserve">
<style type="text/css">
	.st0{fill:#040006;}
</style>
<g>
	<g>
		<g>
			<path class="st0" d="M0.1,0.4L0.1,0.4c0,0,0,0.1,0,0.2L0.1,0.4h0.1c0,0,0,0.3,0.2,0.4c0,0-0.2,0-0.3-0.2C0.2,0.6,0.1,0.5,0.1,0.4
				z"/>
		</g>
	</g>
	<g>
		<g>
			<path class="st0" d="M0.7,0L0.7,0c0,0-0.1,0.1-0.1,0.1L0.7,0l0.1,0.1c0,0-0.3,0.1-0.2,0.4c0,0-0.1-0.2,0-0.4
				C0.5,0.2,0.6,0.1,0.7,0z"/>
		</g>
	</g>
	<g>
		<g>
			<path class="st0" d="M1.3,0.4L1.3,0.4c0,0-0.1,0-0.2,0L1.3,0.4L1.2,0.5c0,0-0.2-0.2-0.5,0c0,0,0.1-0.2,0.3-0.2
				C1.1,0.3,1.2,0.3,1.3,0.4z"/>
		</g>
	</g>
	<g>
		<g>
			<path class="st0" d="M1.3,1L1.3,1c0,0,0-0.1,0-0.2L1.3,1L1.2,1c0,0,0-0.3-0.3-0.4c0,0,0.2,0,0.3,0.2C1.3,0.8,1.3,0.9,1.3,1z"/>
		</g>
	</g>
	<g>
		<g>
			<path class="st0" d="M0.7,1.4L0.7,1.4c0,0,0.1-0.1,0.1-0.1L0.7,1.4L0.7,1.3c0,0,0.3-0.1,0.2-0.4c0,0,0.1,0.2,0,0.4
				C0.9,1.3,0.9,1.3,0.7,1.4z"/>
		</g>
	</g>
	<g>
		<g>
			<path class="st0" d="M0.1,1.1L0.1,1.1c0,0,0.1,0,0.2,0L0.1,1.1L0.2,1c0,0,0.2,0.2,0.5,0c0,0-0.1,0.2-0.3,0.2
				C0.3,1.2,0.2,1.2,0.1,1.1z"/>
		</g>
	</g>
</g>
</svg>
