<svg id="Capa_1" data-name="Capa 1" xmlns="http://www.w3.org/2000/svg" viewBox="0 0 792 612">
  <defs>
    <style>
      .cls-1, .cls-8 {
        fill: #fff;
      }

      .cls-2 {
        fill: #efeefe;
      }

      .cls-11, .cls-12, .cls-18, .cls-19, .cls-20, .cls-21, .cls-22, .cls-23, .cls-24, .cls-25, .cls-26, .cls-27, .cls-28, .cls-29, .cls-3, .cls-30, .cls-39, .cls-4, .cls-5 {
        fill: none;
      }

      .cls-19, .cls-20, .cls-25, .cls-26, .cls-3, .cls-5 {
        stroke: #d9d9d9;
      }

      .cls-11, .cls-12, .cls-19, .cls-20, .cls-21, .cls-22, .cls-23, .cls-24, .cls-25, .cls-26, .cls-27, .cls-28, .cls-29, .cls-3, .cls-30, .cls-33, .cls-39, .cls-4, .cls-5 {
        stroke-miterlimit: 10;
      }

      .cls-39, .cls-4 {
        stroke: #c6c6c5;
      }

      .cls-4 {
        stroke-width: 1.01px;
      }

      .cls-5 {
        stroke-width: 0.97px;
      }

      .cls-6 {
        fill: #d4d4d4;
      }

      .cls-7 {
        fill: #c6c6c5;
      }

      .cls-8 {
        opacity: 0.9;
      }

      .cls-33, .cls-9 {
        fill: #a1aaa6;
      }

      .cls-10 {
        fill: #9edde4;
      }

      .cls-11, .cls-12, .cls-33 {
        stroke: #b1b1b1;
      }

      .cls-11 {
        stroke-width: 10px;
      }

      .cls-12 {
        stroke-width: 8.7px;
      }

      .cls-13 {
        fill: #f5b7aa;
      }

      .cls-14 {
        fill: #ececec;
      }

      .cls-15 {
        fill: #9c9b9b;
      }

      .cls-16 {
        fill: #b1b1b1;
      }

      .cls-17 {
        fill: #2f3238;
      }

      .cls-19 {
        stroke-width: 1.54px;
      }

      .cls-20 {
        stroke-width: 1.41px;
      }

      .cls-21, .cls-22, .cls-23, .cls-27, .cls-28, .cls-29 {
        stroke: #fff;
      }

      .cls-21 {
        stroke-width: 3.4px;
      }

      .cls-22 {
        stroke-width: 2.27px;
      }

      .cls-23 {
        stroke-width: 2.75px;
      }

      .cls-24, .cls-30 {
        stroke: #ececec;
      }

      .cls-24 {
        stroke-width: 1.74px;
      }

      .cls-25 {
        stroke-width: 0.96px;
      }

      .cls-26 {
        stroke-width: 0.88px;
      }

      .cls-27 {
        stroke-width: 2.34px;
      }

      .cls-28 {
        stroke-width: 1.56px;
      }

      .cls-29 {
        stroke-width: 1.89px;
      }

      .cls-30 {
        stroke-width: 1.42px;
      }

      .cls-31 {
        fill: #d9d9d9;
      }

      .cls-32 {
        fill: #f6c4ad;
      }

      .cls-34 {
        fill: #e6e5f7;
      }

      .cls-35 {
        fill: #e4e4e4;
      }

      .cls-36 {
        fill: #f9c9bb;
      }

      .cls-37 {
        fill: #fcc3b8;
      }

      .cls-38 {
        fill: #e2ada8;
      }

      .cls-40 {
        fill: #dda89f;
      }
    </style>
  </defs>
  <title>ilustracion</title>
  <rect class="cls-1" x="-29" y="-36.33" width="844" height="731.33"/>
  <path class="cls-2" d="M18.87,103.85s9,9.5,25.5,9.5,37.5,5,51,0,5.5-8.5,24-5.5,27.5,6,30.5,3,4-8-6.25-12.25c-6.07-2.52-8,1.19-11,1-3.41-.22-6.37-4.49-9.26-9.25-9.52-15.67-12.51-21.07-18-24.85a17.68,17.68,0,0,0-8.63-3.28,14.18,14.18,0,0,0-6.62.88,15.18,15.18,0,0,0-5.25,3.75c-4.31,4.26-6.73,7.11-8.5,9-5,5.34-11.56,10.16-13,9-.75-.6.62-2.21-.17-4.5a7.46,7.46,0,0,0-6.9-4.69c-4.61.33-5.93,7-9.93,6.69-1.9-.14-1.84-1.66-4.5-2.5-3.39-1.07-6.64.38-10,1.89a21.62,21.62,0,0,0-8,5.61,21.08,21.08,0,0,0-4,7A21.63,21.63,0,0,0,18.87,103.85Z"/>
  <g>
    <line class="cls-3" x1="223.06" y1="36.47" x2="567.21" y2="131.22"/>
    <rect class="cls-4" x="203.94" y="174.01" width="36.92" height="230"/>
    <polygon class="cls-5" points="235.19 163.85 210.69 163.85 204.31 173.75 240.5 173.48 235.19 163.85"/>
    <polygon class="cls-3" points="235.19 163.85 242.19 131.22 203.94 131.22 210.69 163.85 235.19 163.85"/>
    <polygon class="cls-3" points="223.06 38.35 242.19 131.22 203.94 131.22 223.06 38.35"/>
    <polyline class="cls-3" points="223.06 36.47 113.19 131.22 183.19 131.22 208.38 156.41 87.44 156.41 87.44 131.22 111.94 131.22"/>
    <polygon class="cls-3" points="237.56 156.41 590.19 156.41 612.19 131.22 257.19 131.22 237.56 156.41"/>
    <polyline class="cls-3" points="203.94 404.01 240.19 368.85 204.69 340.85 240.5 312.85 204.31 284.85 240.5 256.85 204.69 229.03 240.5 200.85 204.31 173.75"/>
    <polyline class="cls-3" points="87.44 156.41 115.44 131.22 143.44 156.41 171.44 131.22 199.44 156.41"/>
    <polyline class="cls-3" points="237.56 156.41 255.44 133.47 283.44 156.41 314.19 130.85 341.69 156.41 369.69 130.85 397.69 156.41 425.69 131.22 453.69 156.41 481.69 131.22 509.69 156.41 540.69 131.22 568.69 156.41 596.69 131.22 604.96 139.5"/>
  </g>
  <rect class="cls-6" x="173.04" y="262.85" width="401.96" height="278.55" rx="12.42" ry="12.42"/>
  <rect class="cls-7" x="184.23" y="276.83" width="378.86" height="258.49" rx="11.61" ry="11.61"/>
  <rect class="cls-8" x="189.44" y="341.26" width="82" height="11" rx="5.5" ry="5.5"/>
  <rect class="cls-8" x="189.44" y="359.55" width="82" height="11" rx="5.5" ry="5.5"/>
  <rect class="cls-8" x="189.44" y="376.97" width="82" height="11" rx="5.5" ry="5.5"/>
  <polygon class="cls-2" points="74.67 507.37 90.44 507.37 86.21 427.14 81.88 402.02 74.67 507.37"/>
  <polygon class="cls-2" points="65.98 508.37 65.98 512.71 71.31 534.57 91.89 534.57 96.32 512.71 96.32 508.37 65.98 508.37"/>
  <polygon class="cls-2" points="711.87 479.08 731.52 479.08 726.25 313.77 720.86 262.02 711.87 479.08"/>
  <polygon class="cls-2" points="705.43 481.33 705.43 490.28 712.07 535.32 737.71 535.32 743.24 490.28 743.24 481.33 705.43 481.33"/>
  <path class="cls-2" d="M745.52,94.1a31.81,31.81,0,0,1-23.12,9.5c-15,0-34,5-46.24,0s-5-8.5-21.76-5.5-24.94,6-27.66,3-3.63-8,5.67-12.25c5.5-2.52,7.27,1.19,10,1,3.09-.22,5.78-4.49,8.4-9.25,8.63-15.67,11.34-21.07,16.32-24.85a15.15,15.15,0,0,1,7.83-3.28,11.74,11.74,0,0,1,6,.88,13.9,13.9,0,0,1,4.76,3.75c3.91,4.26,6.1,7.11,7.71,9,4.54,5.34,10.48,10.16,11.79,9,.68-.6-.56-2.21.15-4.5.79-2.54,3.64-4.9,6.26-4.69,4.18.33,5.37,7,9,6.69,1.72-.14,1.67-1.66,4.08-2.5,3.07-1.07,6,.38,9.07,1.89A19.66,19.66,0,0,1,741,77.6a21.63,21.63,0,0,1,3.63,7A23.74,23.74,0,0,1,745.52,94.1Z"/>
  <path class="cls-2" d="M463.65-.13s-9.47-9-25.95-8.21S400-11.44,386.76-5.77,381.7,3,363.07.93,335.3-3.68,332.46-.54s-3.59,8.19,6.86,11.92c6.19,2.21,7.95-1.59,10.92-1.55,3.42,0,6.59,4.16,9.72,8.77,10.3,15.18,13.55,20.41,19.23,23.91A17.68,17.68,0,0,0,388,45.37a14.18,14.18,0,0,0,6.56-1.22,15.18,15.18,0,0,0,5.05-4c4.09-4.47,6.36-7.44,8-9.42,4.74-5.59,11-10.73,12.53-9.64.77.56-.51,2.23.39,4.49a7.46,7.46,0,0,0,7.13,4.34c4.59-.56,5.57-7.28,9.58-7.18,1.9,0,1.92,1.56,4.62,2.27,3.44.9,6.61-.72,9.89-2.39a21.62,21.62,0,0,0,7.71-6,21.08,21.08,0,0,0,3.64-7.19A21.63,21.63,0,0,0,463.65-.13Z"/>
  <rect class="cls-2" x="-7.86" y="534.35" width="806" height="84.65" rx="15.91" ry="15.91"/>
  <path class="cls-7" d="M674.14,458.42l8.44-2.3s-.77-15.74-8.44-23.41-24.57-5.37-24.57-5.37h.83a17.33,17.33,0,0,0-6.21,3.84c-5.35,5.23-6.91,14.2-6.91,14.2h0l6.14,2.56L640.75,463l22.26,4Z"/>
  <rect class="cls-2" x="217.6" y="206.76" width="392.5" height="266.5" rx="12" ry="12"/>
  <rect class="cls-9" x="227.6" y="274.01" width="60.5" height="17.5" rx="7.96" ry="7.96"/>
  <rect class="cls-9" x="227.6" y="247.51" width="60.5" height="17.5" rx="7.96" ry="7.96"/>
  <rect class="cls-9" x="227.6" y="300.51" width="60.5" height="17.5" rx="7.96" ry="7.96"/>
  <rect class="cls-9" x="334.1" y="282.76" width="69.5" height="59.5"/>
  <rect class="cls-9" x="415.85" y="283.51" width="69.5" height="59.5"/>
  <rect class="cls-10" x="463.95" y="299.93" width="15.15" height="2.33"/>
  <rect class="cls-8" x="463.95" y="305.76" width="6.73" height="2.33"/>
  <rect class="cls-8" x="463.95" y="312.1" width="12.15" height="2.33"/>
  <rect class="cls-8" x="463.95" y="317.76" width="5.15" height="2.33"/>
  <path class="cls-11" d="M563.1,312.51a28.75,28.75,0,1,1-28.75-28.75"/>
  <path class="cls-12" d="M538.1,283.76a25,25,0,0,1,25,25"/>
  <rect class="cls-8" x="427.85" y="296.26" width="4.75" height="37" rx="2.37" ry="2.37"/>
  <rect class="cls-8" x="452.22" y="290.01" width="4.75" height="43.25" rx="2.37" ry="2.37"/>
  <rect class="cls-8" x="440.03" y="310.01" width="4.75" height="23.25" rx="1.74" ry="1.74"/>
  <rect class="cls-9" x="334.1" y="361.43" width="151.25" height="60" rx="12" ry="12"/>
  <rect class="cls-9" x="502.1" y="361.43" width="67.67" height="60" rx="12" ry="12"/>
  <path class="cls-13" d="M175.65,428.06c-.38,1.37-2.61,2.69-2.61,2.69l1,3.87s-.56,0,3.54-3.07,6.16-5.17,6.74-7.15-.11-1.72-.11-1.72l-2.29,2.69c-1.53,1.79-3.12,2.89-3.27,2.18l.68-3.38"/>
  <path class="cls-14" d="M125.69,476.35S141,510.6,144.41,525.6s4,20.75,4,20.75h4.48l-1.58-70Z"/>
  <path class="cls-7" d="M122.94,543.85h4a242.37,242.37,0,0,1,11.63-30.5c3.83-8.28,8.28-16.56,9.13-28.83a59.38,59.38,0,0,0,0-8.17h-22a86.24,86.24,0,0,1,2.67,15.17c.52,6.17.38,12.49-3,36.46C124.45,534,123.64,539.37,122.94,543.85Z"/>
  <path class="cls-15" d="M167,422.68l1.93,3.57c-.75,2.75-4.16,14.09-14.63,18.87-2,.9-8.95,4.08-13.25,1.06l-4.89-17.86h0s15.83,2,22.77-.42S167,422.68,167,422.68Z"/>
  <line class="cls-16" x1="169.85" y1="422.8" x2="170.52" y2="429.35"/>
  <path class="cls-16" d="M135.31,423a53.86,53.86,0,0,0-8,21.67,161.65,161.65,0,0,0-1.67,26.17v6.5l25.75-1s-.75-26.17-3.75-37.33-3.58-11.75-6.25-14.42A6.41,6.41,0,0,0,135.31,423Z"/>
  <path class="cls-13" d="M151.72,413.27c0,1.43.11,4.81-2.49,7.29a8.44,8.44,0,0,1-5.94,2.24,8.07,8.07,0,0,1-7-4.48,8.53,8.53,0,0,1-.14-5.58c.31-1.46,1.21-5.62,5-7.66.71-.39,3.27-1.78,5.9-.85C151.47,405.83,151.71,412.64,151.72,413.27Z"/>
  <path class="cls-17" d="M148.85,404.93a7.61,7.61,0,0,0-2-1.29,8,8,0,0,0-7,.3,9,9,0,0,0-3.49,3.55,11.06,11.06,0,0,0-1.35,5.34,10.8,10.8,0,0,0,.68,4.19l.59,1.29h0l2.07.38c-.45-2.31-.27-4.1.53-4.44a1.31,1.31,0,0,1,1.34.26,2.25,2.25,0,0,1,.36,1.09c0,.13,0,.21,0,.22s0-2.06,1.19-3.16a3.94,3.94,0,0,1,1.51-.73,14.45,14.45,0,0,0,4.4-3c1.21-1.07,2.46-2.46,2.46-2.46h0A7.26,7.26,0,0,0,148.85,404.93Zm-12.73,12.49v0Zm-.42-3.55v0Zm0,.63v0Zm.05.56v0Zm.08.67,0,.13Zm.07.56,0,.14Zm.09.63v0Zm3.67-12.88a5.77,5.77,0,0,0-.67.55A5.09,5.09,0,0,1,139.71,404.05Zm8,.58h0Zm.61.39.06,0Z"/>
  <g>
    <rect class="cls-9" x="163.52" y="399.79" width="52.91" height="23.16" transform="translate(-99.09 62.43) rotate(-14.85)"/>
    <rect class="cls-9" x="165.01" y="399.6" width="51.23" height="21.93" transform="translate(-98.86 62.57) rotate(-14.85)"/>
  </g>
  <path class="cls-13" d="M175.65,428.06a6.58,6.58,0,0,1-2.61,2.69l1,3.87h0a16,16,0,0,1,3.56-3.06c2.79-1.88,3.48-1.16,4.93-2.67a6,6,0,0,0,1.82-4.48,5.26,5.26,0,0,0-.88-2.49,8.12,8.12,0,0,1-1.52,3.46c-1,1.32-2.78,2.67-3.18,2.34a.27.27,0,0,1-.09-.16l.25-1.26"/>
  <path class="cls-17" d="M148.35,547.43v3.92H161.1a15.5,15.5,0,0,0-2-1.71,12.89,12.89,0,0,0-6.25-2.62A11.51,11.51,0,0,0,148.35,547.43Z"/>
  <path class="cls-17" d="M123,544.71l-1,3.39a11.84,11.84,0,0,0,10.75,3c-.44-.58-1.07-1.42-1.86-2.42-2.48-3.14-3.06-3.55-3.6-3.81A5.88,5.88,0,0,0,123,544.71Z"/>
  <rect class="cls-18" x="710.77" y="389.21" width="13.56" height="95.1"/>
  <polygon class="cls-19" points="707.18 480.52 726.83 480.52 721.56 315.21 716.17 263.46 707.18 480.52"/>
  <polygon class="cls-20" points="730.51 534.52 704.87 534.52 698.23 489.48 736.04 489.48 730.51 534.52"/>
  <rect class="cls-19" x="698.23" y="480.52" width="37.82" height="8.95"/>
  <g>
    <path class="cls-9" d="M669.7,275.55s-11.18,35.5,2.66,58.44c9.81,16.26,24,18,40.84,19,33.91,2.1,58.15-19.28,60.54-30.17,1.6-7.3-.18-12.15-.18-12.15-.94-2.57-2.45-3.36-3.33-4.91-5.66-9.93-6.83-20.37-7.31-25a77.18,77.18,0,0,1,.41-19.18c1.94-12.83,5.7-14.2,4.77-20.39s-5.05-6.82-15.91-19c-7.41-8.33-11.12-12.49-12.73-17.92-3.45-11.58,3-16.55.27-29-2.37-10.86-10.27-20.78-19.36-22.61-6.28-1.26-11.34,1.55-13.79,2.91-7.74,4.29-11.91,11.86-14.32,16.39-2,3.69-3.26,7.64-5.84,15.55-3.85,11.82-5.9,18.26-6.11,27.19a58,58,0,0,0,.8,12.22c2.92,16.31,6.9,14.84,1.59,28.66S669.7,275.55,669.7,275.55Z"/>
    <path class="cls-2" d="M664.22,274.44c-.65,1.65-13,33.76.46,57.62,9,16,22.39,18.56,40.67,20.58,32.54,3.59,60.37-11.93,61.13-22.88a25.87,25.87,0,0,0-.95-8.25c-1.49-4.86-4.12-6.75-5.71-8.63-7.87-9.28-6.14-37.45-3.85-48.18,1.11-5.18,2.47-8.76,1.38-13.71-.3-1.35-1.13-4.36-10-15.06-5.2-6.3-6.19-6.81-8.73-10.83a38.84,38.84,0,0,1-5.37-11.51A40.38,40.38,0,0,1,732.17,201c.53-12.8,5-15.33,4.17-25.18a30,30,0,0,0-3.16-11,22.85,22.85,0,0,0-11.78-10.7,22.18,22.18,0,0,0-18.18.43c-7.88,3.67-12.08,10.89-14.88,15.75-2.08,3.6-3.48,7.5-6.27,15.31-4.18,11.66-6.4,18-6.82,27a57.79,57.79,0,0,0,.53,12.28c1.6,10.24,3.77,13.62,3.82,18,0,3.82-1.12,6.42-2.88,10.82A76,76,0,0,1,664.22,274.44Z"/>
    <path class="cls-21" d="M708,333.7s21.92-1,10.25-49.18-7.38-80.28-3.41-85.89"/>
    <path class="cls-22" d="M715.92,269.32S719.5,256.86,726,255s8.46-8.59,8.46-13.31"/>
    <path class="cls-23" d="M720.89,304.45S715.63,292,706,290.13s-12.43-8.59-12.43-13.31"/>
  </g>
  <line class="cls-24" x1="710.77" y1="466.06" x2="711.87" y2="424.73"/>
  <rect class="cls-18" x="72.4" y="463.05" width="10.88" height="46.15"/>
  <polygon class="cls-25" points="69.51 507.21 85.28 507.21 81.05 426.99 76.72 401.87 69.51 507.21"/>
  <polygon class="cls-26" points="88.23 533.57 67.66 533.57 62.33 511.71 92.67 511.71 88.23 533.57"/>
  <rect class="cls-25" x="62.33" y="507.37" width="30.34" height="4.35"/>
  <g>
    <path class="cls-9" d="M46.78,401.14s-7.69,24.43,1.83,40.21c6.75,11.19,16.54,12.38,28.1,13.09,23.33,1.45,40-13.26,41.65-20.76a16.19,16.19,0,0,0-.12-8.36c-.65-1.77-1.69-2.31-2.29-3.38-3.89-6.83-4.7-14-5-17.19a53.1,53.1,0,0,1,.28-13.2c1.34-8.83,3.92-9.77,3.29-14s-3.48-4.7-11-13.09c-5.1-5.73-7.65-8.59-8.76-12.33-2.37-8,2-11.39.18-19.94-1.63-7.47-7.06-14.3-13.32-15.56-4.32-.87-7.8,1.06-9.49,2-5.32,3-8.19,8.16-9.86,11.28-1.35,2.54-2.24,5.26-4,10.7-2.65,8.13-4.06,12.57-4.2,18.71a39.93,39.93,0,0,0,.55,8.41c2,11.22,4.75,10.21,1.1,19.72S46.78,401.14,46.78,401.14Z"/>
    <path class="cls-2" d="M43,400.37c-.45,1.13-8.91,23.23.32,39.64,6.18,11,15.41,12.77,28,14.16,22.39,2.47,41.54-8.21,42.06-15.75a17.8,17.8,0,0,0-.65-5.68c-1-3.34-2.84-4.65-3.93-5.94-5.42-6.39-4.23-25.77-2.65-33.15.76-3.56,1.7-6,.95-9.43-.21-.93-.77-3-6.85-10.36-3.58-4.33-4.26-4.68-6-7.45a26.72,26.72,0,0,1-3.7-7.92,27.78,27.78,0,0,1-.77-8.66c.36-8.81,3.47-10.54,2.87-17.33a20.62,20.62,0,0,0-2.17-7.59,15.73,15.73,0,0,0-8.1-7.36,15.26,15.26,0,0,0-12.51.29c-5.42,2.52-8.31,7.49-10.24,10.84-1.43,2.48-2.39,5.16-4.31,10.53-2.87,8-4.4,12.4-4.69,18.55a39.76,39.76,0,0,0,.36,8.45c1.1,7,2.59,9.37,2.63,12.36,0,2.63-.77,4.41-2,7.44A52.27,52.27,0,0,1,43,400.37Z"/>
    <path class="cls-27" d="M73.15,441.15s15.08-.7,7.05-33.84-5.08-55.24-2.35-59.1"/>
    <path class="cls-28" d="M78.58,396.86s2.46-8.58,7-9.85,5.82-5.91,5.82-9.15"/>
    <path class="cls-29" d="M82,421s-3.61-8.58-10.24-9.85-8.55-5.91-8.55-9.15"/>
  </g>
  <line class="cls-30" x1="72.6" y1="492.84" x2="73.7" y2="465.18"/>
  <polygon class="cls-31" points="381.44 431.85 390.19 360.35 358.94 361.6 365.69 431.85 368.94 431.85 373.19 376.35 378.19 431.85 381.44 431.85"/>
  <path class="cls-7" d="M358.94,361.72l31.25-1.4c1.63-14.47.07-24.85-1.25-30.75,0,0-2.77-12.38-8.65-14.59a30,30,0,0,0-3.43-1,16.37,16.37,0,0,0-6.26-.54,10.46,10.46,0,0,0-5.63,2.35,9.3,9.3,0,0,0-1.35,1.55c-5.37,8-5.67,22.71-5.67,22.71A165.67,165.67,0,0,0,358.94,361.72Z"/>
  <path class="cls-32" d="M410.85,306.68a11.46,11.46,0,0,1,4-4c1.09-.63,2.82-1.37,3-1,.08.12-.07.35-.36.81-.74,1.12-1.11,1.15-1.55,1.92a6.73,6.73,0,0,0-.64,1.77h0a18.55,18.55,0,0,0,3-1.08c3.1-1.43,5-3.37,5.25-3.13.05.06,0,.21-.87,1.49a20,20,0,0,1-1.43,2.06c-3,3-5.5,4-7.42,4.33S410.85,306.68,410.85,306.68Z"/>
  <rect class="cls-6" x="346.57" y="293.33" width="170.68" height="10.53" rx="5.27" ry="5.27" transform="translate(-12.58 19.06) rotate(-2.49)"/>
  <path class="cls-32" d="M415.45,305.59h0a9.76,9.76,0,0,0,2.86-.49c3.1-1.43,5-3.37,5.25-3.13.08.08-.21.39-.87,1.49-.46.77-.72,1.27-.82,1.45-.68,1.2-4.59,6-8,4.94-.43-.13-1.92-.68-3-3.17l.63-.92"/>
  <path class="cls-32" d="M348,298.6a1.85,1.85,0,0,0-.77.08c-1.13.38-1.62,1.87-1.69,2.83-.12,1.76,1.25,3.38,2.15,4.28s1.2-1.75,1.2-1.75a4.26,4.26,0,0,1-1.27-1.83A4.57,4.57,0,0,1,348,298.6Z"/>
  <path class="cls-7" d="M349.47,303.35l-2,2.67a68.7,68.7,0,0,0,5.28,10.62c.37.61,2.89,6.45,7.68,10.21.67.53,2.5.52,3.25.58,4.44.38,9.71-12.58,9.71-12.58-4.3-1.21-9.6-2.39-12-3.1-4.29-1.27-6-3.78-8.95-6.07C351.24,304.7,350.18,303.91,349.47,303.35Z"/>
  <path class="cls-32" d="M348.87,304s.79-2,.49-2.88-.61-1-.61-1,.36.14-.24,1.36-1.31,2.34-.84,2.58A1.83,1.83,0,0,0,348.87,304Z"/>
  <g>
    <ellipse class="cls-17" cx="377.23" cy="301.74" rx="7.98" ry="9.8"/>
    <path class="cls-17" d="M370.06,306.64c1.26,3.14,4,5,6.49,4.75s4.15-2.82,4.34-3.14a10.08,10.08,0,0,0,1.34-4.44c0-5.25,1.41-1.31,1.41-1.31s1.26,1,1.26-1.26c0-3.69.17-3.92.56-4.5.22-.33.59-.72.51-1.21a1.16,1.16,0,0,0-.45-.68,10.62,10.62,0,0,0-7.27-3.16,9.08,9.08,0,0,0-3.44.72,9.37,9.37,0,0,0-4.19,3.73C367.79,300.58,369.8,306,370.06,306.64Z"/>
  </g>
  <rect class="cls-17" x="365.13" y="432.64" width="4.12" height="4.12" rx="2.06" ry="2.06"/>
  <rect class="cls-17" x="378.2" y="432.64" width="4.12" height="4.12" rx="2.06" ry="2.06"/>
  <rect class="cls-33" x="173.04" y="525.02" width="401.96" height="16.76" rx="8.38" ry="8.38"/>
  <rect class="cls-34" x="218.37" y="206.76" width="391.73" height="23.25" rx="9.88" ry="9.88"/>
  <rect class="cls-1" x="192.94" y="529.35" width="37.5" height="5" rx="2.5" ry="2.5"/>
  <rect class="cls-1" x="236.85" y="529.35" width="13" height="5" rx="1.47" ry="1.47"/>
  <rect class="cls-1" x="252.02" y="529.35" width="13" height="5" rx="1.47" ry="1.47"/>
  <rect class="cls-1" x="257.7" y="481.84" width="223.09" height="11" rx="5.5" ry="5.5"/>
  <rect class="cls-1" x="285.74" y="502.43" width="129.8" height="11" rx="4.2" ry="4.2"/>
  <rect class="cls-1" x="198.53" y="502.43" width="27.99" height="11" rx="1.95" ry="1.95"/>
  <rect class="cls-1" x="233.53" y="502.43" width="27.99" height="11" rx="1.95" ry="1.95"/>
  <rect class="cls-1" x="212.53" y="481.84" width="27.99" height="11" rx="1.95" ry="1.95"/>
  <circle class="cls-1" cx="239.94" cy="219.6" r="4.5"/>
  <circle class="cls-1" cx="252.69" cy="219.76" r="4.5"/>
  <circle class="cls-1" cx="265.35" cy="219.76" r="4.5"/>
  <g>
    <polygon class="cls-17" points="344.53 521.99 348.47 523.29 371.64 443.31 367.7 442.01 344.53 521.99"/>
    <polygon class="cls-17" points="394.46 523.75 390.52 525.05 367.25 444.75 371.19 443.45 394.46 523.75"/>
    <line class="cls-17" x1="352.64" y1="501.41" x2="378.8" y2="479.82"/>
    <line class="cls-17" x1="358.4" y1="478.39" x2="384.8" y2="500.35"/>
  </g>
  <g>
    <polygon class="cls-17" points="360.95 522.87 364.9 524.17 388.07 444.19 384.13 442.89 360.95 522.87"/>
    <polygon class="cls-17" points="410.89 524.63 406.95 525.93 383.68 445.63 387.62 444.33 410.89 524.63"/>
    <line class="cls-17" x1="369.07" y1="502.29" x2="395.23" y2="480.7"/>
    <line class="cls-17" x1="374.83" y1="479.27" x2="401.23" y2="501.23"/>
  </g>
  <rect class="cls-9" x="343.43" y="436.56" width="72.42" height="10.33" rx="5.17" ry="5.17"/>
  <path class="cls-7" d="M629.81,539.42l6.14,1.28s1-19.19,7.42-32.5S658.47,488,658.47,488v-15.1l-22,6.91s-5.37,35.06-5.37,42.48A160,160,0,0,1,629.81,539.42Z"/>
  <path class="cls-35" d="M660.26,539.67h5.89s0-44.78,1.79-53.74-16.12-9-16.12-9,4.86,43.76,6.65,52.2S660.26,539.67,660.26,539.67Z"/>
  <rect class="cls-9" x="619.96" y="452.81" width="78.91" height="38.28" rx="8.67" ry="8.67" transform="translate(124.74 -137.71) rotate(13.16)"/>
  <rect class="cls-2" x="622.87" y="452.56" width="76.39" height="35.79" rx="8.24" ry="8.24" transform="translate(124.44 -138.12) rotate(13.16)"/>
  <path class="cls-36" d="M682.52,455s1,10.75-3.33,17.91-15.1,13.05-15.1,13.05-1.53-2.57,0-4.09,10-7.42,10-13.56V455.12Z"/>
  <path class="cls-36" d="M638,445.78s-1.61,16.91,0,23.88,1.61,13.69,3.76,15.83,2.15-4,2.15-8.05-.81-14,1.07-19.05a25.64,25.64,0,0,0,1.53-9.72Z"/>
  <ellipse class="cls-37" cx="659.94" cy="415.19" rx="8.89" ry="9.77"/>
  <ellipse class="cls-38" cx="655.68" cy="419.99" rx="0.64" ry="0.94" transform="translate(180.58 1036.91) rotate(-85.04)"/>
  <g>
    <ellipse class="cls-17" cx="632.08" cy="543.76" rx="2.97" ry="2.36"/>
    <path class="cls-17" d="M624.66,544.89a9.63,9.63,0,0,0,3.29-1.53,9.75,9.75,0,0,1,2.65-1.67,7,7,0,0,1,1.29-.35l.78,4.65a30.38,30.38,0,0,1-9.51.16Z"/>
  </g>
  <g>
    <ellipse class="cls-17" cx="664.23" cy="543.23" rx="3.36" ry="2.67" transform="translate(-43.88 58.58) rotate(-4.89)"/>
    <path class="cls-17" d="M655.67,545.52a8.58,8.58,0,0,0,3.45-1.75c1.09-.93,1.66-2,3.23-2.72a7,7,0,0,1,1.42-.51l1.33,5.16a15.67,15.67,0,0,1-10.7,1.1Z"/>
  </g>
  <rect class="cls-9" x="512.19" y="168.8" width="75" height="25.55"/>
  <line class="cls-39" x1="558.81" y1="194.35" x2="558.81" y2="168.8"/>
  <line class="cls-39" x1="539.06" y1="194.35" x2="539.06" y2="168.8"/>
  <line class="cls-39" x1="549.69" y1="168.8" x2="549.06" y2="131.22"/>
  <line class="cls-39" x1="539.06" y1="168.8" x2="549.38" y2="162.47"/>
  <line class="cls-39" x1="558.81" y1="168.8" x2="549.38" y2="162.47"/>
  <polygon class="cls-9" points="646.51 448.67 648.5 441.42 650.65 449.64 646.51 448.67"/>
  <polygon class="cls-9" points="674.08 455.12 671.13 447.04 672.6 454.77 674.08 455.12"/>
  <path class="cls-17" d="M652.56,408.37h0s1.43,1.39,2.8,2.46a16.73,16.73,0,0,0,5,3,4.77,4.77,0,0,1,1.72.73c1.32,1.1,1.24,3.18,1.36,3.16s0-.09,0-.22a2.07,2.07,0,0,1,.41-1.09,1.65,1.65,0,0,1,1.53-.26c.91.34,1.12,2.13.61,4.44l2.36-.38h0l.67-1.29a9.62,9.62,0,0,0,.77-4.19,10,10,0,0,0-1.54-5.34,9.71,9.71,0,0,0-4-3.55,10.06,10.06,0,0,0-3.61-.94,10.3,10.3,0,0,0-4.33.64,8.86,8.86,0,0,0-2.31,1.29A7.56,7.56,0,0,0,652.56,408.37Zm48.55,1.05v0Zm-.42-3.55v0Zm0,.63v0Zm.05.56v0Zm.08.67,0,.13Zm.07.56,0,.14Zm.09.63v0Zm3.67-12.88a5.77,5.77,0,0,0-.67.55A5.09,5.09,0,0,1,704.71,396.05Zm8,.58h0Zm.61.39.06,0Z"/>
  <circle class="cls-40" cx="149.01" cy="417.85" r="0.85"/>
  <path class="cls-15" d="M149.9,452.72l-8.54-8,5.25-9.65a86,86,0,0,1,3.29,17.65Z"/>
  <path class="cls-16" d="M173.52,430.35l.67,4c-1.6,2.36-8.5,12-20,13.12-2.16.21-9.79,1-12.88-3.29l-1.85-20.52.31-.23s17,9.26,24.38,9.26S173.52,430.35,173.52,430.35Z"/>
  <polygon class="cls-31" points="382.42 329.47 390 335.38 388.42 326.42 382.42 329.47"/>
  <path class="cls-7" d="M380.68,329.47a32.46,32.46,0,0,0,15-1.46s11.55-5.24,17.69-17.12c2-3.83-2.75-4.21-2.75-4.21L398,313.85s-5.51,2.66-18.25.66c-3.79-.59-4.34.44-4.57.67C372.76,317.62,377.85,325.46,380.68,329.47Z"/>
</svg>
