<?xml version="1.0" encoding="iso-8859-1"?>
<!-- Generator: Adobe Illustrator 19.0.0, SVG Export Plug-In . SVG Version: 6.00 Build 0)  -->
<svg xmlns="http://www.w3.org/2000/svg" xmlns:xlink="http://www.w3.org/1999/xlink" version="1.1" id="Capa_1" x="0px" y="0px" viewBox="0 0 508 508" style="enable-background:new 0 0 508 508;" xml:space="preserve" width="512px" height="512px">
<g>
	<g>
		<g>
			<path d="M508,311.4h-98.3v-65.5H286.8v-24.6h-24.6v-49.2h81.9c27.1,0,49.2-22.1,49.2-49.2c0-17.9-9.6-34.1-24.9-42.7     c0.2-2.2,0.3-4.3,0.3-6.4C368.7,33.1,335.6,0,295,0c-26,0-50,13.9-63.2,35.9c-6-2.1-12.3-3.1-18.7-3.1c-25.8,0-48,17-55,41.3     c-24.4,2.9-43.3,23.7-43.3,48.8c0,27.1,22.1,49.2,49.2,49.2h81.9v49.2h-24.6v24.6H49.2v65.5H16.4c-9,0-16.4,7.3-16.4,16.4v147.5     c0,9,7.3,16.4,16.4,16.4h81.9c9,0,16.4-7.3,16.4-16.4V327.7c0-9-7.3-16.4-16.4-16.4H65.5v-49.2h155.7v24.6h65.5v-24.6h106.5v49.2     H278.6v163.9h65.5l-12.3,16.4h-12.3V508H467v-16.4h-12.3l-12.3-16.4H508V311.4z M98.3,327.7v147.5H16.4V327.7H98.3z M163.9,155.7     c-18.1,0-32.8-14.7-32.8-32.8c0-18.1,14.7-32.8,33.5-32.8h6.9l1.2-6.8C176,63.5,193,49.2,213,49.2c6.5,0,12.8,1.5,18.7,4.5     l7.6,3.9l3.6-7.8c9.3-20.3,29.8-33.4,52.1-33.4c55.5,0,59.5,58.8,56.4,67.2l-1.1,6.5l6.1,2.5c12.4,5,20.5,17,20.5,30.3     c0,18.1-14.7,32.8-32.8,32.8H163.9z M270.4,270.4h-32.8v-32.8h32.8V270.4z M352.3,491.6l12.3-16.4H422l12.3,16.4H352.3z      M491.6,458.8H295v-16.4h196.6V458.8z M491.6,426.1H295v-98.3h196.6V426.1z" fill="#FFFFFF"/>
			<rect x="49.2" y="450.6" width="16.4" height="16.4" fill="#FFFFFF"/>
		</g>
	</g>
</g>
<g>
</g>
<g>
</g>
<g>
</g>
<g>
</g>
<g>
</g>
<g>
</g>
<g>
</g>
<g>
</g>
<g>
</g>
<g>
</g>
<g>
</g>
<g>
</g>
<g>
</g>
<g>
</g>
<g>
</g>
</svg>
